<svg width="13" height="16" viewBox="0 0 13 16" fill="none" xmlns="http://www.w3.org/2000/svg">
<path d="M6.49995 9.14397C5.9156 9.14397 5.34437 8.97641 4.8585 8.66246C4.37263 8.34851 3.99393 7.90229 3.77031 7.38021C3.54669 6.85814 3.48818 6.28366 3.60218 5.72943C3.71618 5.1752 3.99758 4.66611 4.41078 4.26653C4.82398 3.86695 5.35043 3.59483 5.92355 3.48459C6.49668 3.37434 7.09074 3.43093 7.63061 3.64718C8.17048 3.86343 8.63192 4.22963 8.95657 4.69949C9.28122 5.16934 9.4545 5.72174 9.4545 6.28683C9.45356 7.04431 9.14198 7.77051 8.5881 8.30614C8.03421 8.84176 7.28326 9.14307 6.49995 9.14397ZM6.49995 4.57255C6.14934 4.57255 5.8066 4.67309 5.51508 4.86146C5.22356 5.04982 4.99634 5.31756 4.86217 5.6308C4.728 5.94405 4.69289 6.28873 4.76129 6.62127C4.82969 6.95381 4.99853 7.25927 5.24645 7.49901C5.49437 7.73876 5.81024 7.90203 6.15411 7.96818C6.49799 8.03432 6.85442 8.00038 7.17835 7.87063C7.50227 7.74088 7.77913 7.52115 7.97392 7.23924C8.16871 6.95733 8.27268 6.62589 8.27268 6.28683C8.27221 5.83231 8.08529 5.39654 7.75294 5.07515C7.42059 4.75376 6.96997 4.573 6.49995 4.57255Z" fill="#777A7D"/>
<path d="M6.5 16L1.5151 10.3149C1.44583 10.2295 1.37728 10.1436 1.30946 10.0571C0.457949 8.97245 -0.00205706 7.64756 6.91533e-06 6.28571C6.91533e-06 4.61864 0.684826 3.01984 1.90381 1.84104C3.1228 0.662243 4.77609 0 6.5 0C8.22391 0 9.8772 0.662243 11.0962 1.84104C12.3152 3.01984 13 4.61864 13 6.28571C13.0021 7.64694 12.5423 8.97123 11.6911 10.0554L11.6905 10.0571C11.6905 10.0571 11.5133 10.2823 11.4867 10.3126L6.5 16ZM2.25255 9.36857C2.25373 9.36857 2.39082 9.54457 2.42214 9.58229L6.5 14.2331L10.5832 9.576C10.6092 9.54457 10.7474 9.36743 10.748 9.36686C11.4436 8.48064 11.8195 7.3983 11.8182 6.28571C11.8182 4.92174 11.2579 3.61364 10.2605 2.64917C9.26317 1.68469 7.91047 1.14286 6.5 1.14286C5.08953 1.14286 3.73683 1.68469 2.73948 2.64917C1.74213 3.61364 1.18182 4.92174 1.18182 6.28571C1.18058 7.39899 1.55692 8.48195 2.25314 9.36857H2.25255Z" fill="#777A7D"/>
</svg>
