<svg width="20" height="18" viewBox="0 0 20 18" fill="none" xmlns="http://www.w3.org/2000/svg">
<path d="M20 2.88295C20 7.38953 20 11.8911 20 16.3977C19.9902 16.4177 19.9804 16.4327 19.9755 16.4527C19.8532 17.3541 19.0949 18 18.1507 18C12.7153 17.995 7.27984 18 1.84442 17.995C1.6683 17.995 1.49217 17.98 1.32583 17.9299C0.479452 17.6895 0 17.0136 0 16.0672C0 11.7559 0 7.44461 0 3.13332C0 2.61757 0.215264 2.40225 0.728963 2.40225C2.37769 2.40225 4.02153 2.40225 5.67025 2.40225C5.74364 2.40225 5.81703 2.40225 5.9002 2.40225C5.9002 2.19695 5.9002 2.0217 5.9002 1.85145C5.91487 0.784895 6.6634 0.0137701 7.70548 0.00876278C9.2319 -0.00125183 10.7632 -0.00625913 12.2945 0.0137701C12.5636 0.0187774 12.8571 0.0838723 13.1018 0.19904C13.772 0.519508 14.0802 1.10035 14.0998 1.85145C14.1047 2.03672 14.0998 2.21698 14.0998 2.40726C14.2074 2.40726 14.2857 2.40726 14.364 2.40726C15.9932 2.40726 17.6174 2.41227 19.2466 2.40225C19.6184 2.39224 19.8826 2.50741 20 2.88295ZM7.06947 10.7995C5.99315 10.7995 4.94129 10.7995 3.89432 10.7995C2.96967 10.7995 2.35812 10.3438 2.06458 9.44753C1.80039 8.64135 1.5411 7.83017 1.27691 7.02399C1.25245 6.95389 1.22798 6.87878 1.19863 6.80868C1.18885 6.80868 1.17906 6.81369 1.16928 6.81369C1.16928 6.87878 1.16928 6.93887 1.16928 7.00396C1.16928 10.0134 1.16928 13.0277 1.16928 16.0371C1.16928 16.5829 1.37476 16.7932 1.91781 16.7932C7.3092 16.7932 12.6957 16.7932 18.0871 16.7932C18.6252 16.7932 18.8258 16.5829 18.8258 16.0321C18.8258 13.0278 18.8258 10.0234 18.8258 7.01899C18.8258 6.94888 18.8258 6.88379 18.8258 6.81369C18.7769 6.85875 18.7573 6.90382 18.7427 6.95389C18.4687 7.7851 18.1996 8.62132 17.9256 9.45254C17.637 10.3388 17.0205 10.7945 16.1106 10.7945C15.1223 10.7945 14.1341 10.7945 13.1409 10.7945C13.0724 10.7945 13.0039 10.7945 12.9207 10.7945C12.9207 10.9998 12.9256 11.1801 12.9207 11.3603C12.9159 11.7409 12.681 11.9912 12.3141 11.9962C10.7632 12.0013 9.21722 12.0013 7.66634 11.9962C7.3092 11.9962 7.07436 11.7409 7.06458 11.3753C7.06947 11.1901 7.06947 11.0048 7.06947 10.7995ZM1.409 3.60901C1.41879 3.64907 1.42857 3.68412 1.43836 3.71417C2.02544 5.5168 2.61252 7.32443 3.19961 9.12706C3.31213 9.46756 3.50294 9.59775 3.86008 9.59775C4.87769 9.59775 5.89041 9.59775 6.90802 9.59775C6.95695 9.59775 7.00587 9.58773 7.06947 9.58272C7.06947 9.39746 7.06947 9.22721 7.06947 9.05195C7.07436 8.63634 7.3092 8.39599 7.71526 8.39599C9.23679 8.39599 10.7632 8.39599 12.2847 8.39599C12.6908 8.39599 12.9207 8.64135 12.9256 9.05696C12.9256 9.23221 12.9256 9.41248 12.9256 9.59274C13.9922 9.59274 15.0245 9.59274 16.0568 9.59274C16.5215 9.59274 16.6781 9.47757 16.8297 9.02191C17.2407 7.75506 17.6566 6.48821 18.0675 5.21636C18.2436 4.68058 18.4149 4.14479 18.591 3.60401C12.8571 3.60901 7.13796 3.60901 1.409 3.60901ZM7.06947 2.39224C9.03131 2.39224 10.9687 2.39224 12.9305 2.39224C12.9305 2.19695 12.9354 2.01168 12.9305 1.82641C12.9207 1.45087 12.681 1.21052 12.3141 1.2005C12.0988 1.19549 11.8836 1.2005 11.6683 1.2005C10.3523 1.2005 9.0411 1.2005 7.72505 1.2005C7.30431 1.2005 7.07436 1.44085 7.06947 1.86647C7.06947 2.03672 7.06947 2.20196 7.06947 2.39224ZM8.25342 10.7845C9.42759 10.7845 10.5871 10.7845 11.7466 10.7845C11.7466 10.3839 11.7466 9.99332 11.7466 9.60776C10.5773 9.60776 9.41781 9.60776 8.25342 9.60776C8.25342 10.0033 8.25342 10.3839 8.25342 10.7845Z" fill="#777A7D"/>
</svg>
