<svg width="12" height="16" viewBox="0 0 12 16" fill="none" xmlns="http://www.w3.org/2000/svg">
<path d="M1.18852 4.64076C0.967569 3.12239 1.99368 1.75852 3.56119 1.25884C3.83936 1.1701 4.13949 1.19536 4.40043 1.32947C4.66136 1.46357 4.86348 1.69643 4.96559 1.9806L5.46881 3.38069C5.54982 3.60592 5.56447 3.85128 5.51088 4.08526C5.45728 4.31925 5.33789 4.53118 5.16803 4.69387L3.67109 6.12413C3.5973 6.19477 3.54232 6.28416 3.5115 6.38358C3.48069 6.483 3.47509 6.58905 3.49525 6.6914L3.50913 6.75416L3.545 6.91107C3.73116 7.67345 4.01482 8.40622 4.38833 9.08965C4.7952 9.81588 5.30013 10.4772 5.88758 11.0534L5.93386 11.0968C6.00859 11.166 6.09923 11.2139 6.19695 11.2357C6.29467 11.2574 6.39613 11.2525 6.49145 11.2212L8.42684 10.5851C8.64679 10.513 8.88235 10.5112 9.10332 10.5798C9.32428 10.6484 9.52055 10.7843 9.66696 10.9701L10.5832 12.13C10.9649 12.6128 10.9187 13.3225 10.4802 13.7485C9.28058 14.9157 7.63093 15.1547 6.48335 14.1927C5.07668 13.0089 3.89084 11.565 2.98509 9.93332C2.07199 8.30287 1.46207 6.50725 1.18737 4.64076H1.18852ZM4.70877 6.77106L5.9489 5.5834C6.28882 5.25817 6.52781 4.83436 6.63521 4.36639C6.7426 3.89841 6.71349 3.40763 6.55161 2.95704L6.04954 1.55696C5.84402 0.985152 5.43727 0.516622 4.91216 0.246839C4.38705 -0.0229448 3.78311 -0.0736795 3.2234 0.104973C1.27644 0.726562 -0.286439 2.54788 0.0444155 4.82301C0.275782 6.41139 0.809083 8.43185 1.98558 10.5416C2.96277 12.301 4.24194 13.8578 5.75918 15.1341C7.48055 16.5765 9.77802 16.084 11.2703 14.6333C11.6973 14.2184 11.9565 13.6493 11.995 13.0419C12.0335 12.4345 11.8484 11.8346 11.4774 11.3648L10.5612 10.2037C10.2681 9.83251 9.87542 9.56115 9.43351 9.42438C8.99161 9.28761 8.52062 9.29168 8.08094 9.43605L6.4741 9.9635C6.05922 9.5172 5.69582 9.02179 5.3913 8.48737C5.09715 7.94708 4.86791 7.37105 4.70877 6.77227V6.77106Z" fill="#777A7D"/>
</svg>
