<svg width="16" height="12" viewBox="0 0 16 12" fill="none" xmlns="http://www.w3.org/2000/svg">
<path d="M15.4286 0H0.571429C0.255357 0 0 0.24375 0 0.545455V11.4545C0 11.7563 0.255357 12 0.571429 12H15.4286C15.7446 12 16 11.7563 16 11.4545V0.545455C16 0.24375 15.7446 0 15.4286 0ZM14.7143 1.88864V10.7727H1.28571V1.88864L0.792857 1.52216L1.49464 0.661364L2.25893 1.22898H13.7429L14.5071 0.661364L15.2089 1.52216L14.7143 1.88864ZM13.7429 1.22727L8 5.48864L2.25714 1.22727L1.49286 0.659659L0.791072 1.52045L1.28393 1.88693L7.38393 6.4142C7.55936 6.5443 7.77518 6.61492 7.99732 6.61492C8.21947 6.61492 8.43529 6.5443 8.61071 6.4142L14.7143 1.88864L15.2071 1.52216L14.5054 0.661364L13.7429 1.22727Z" fill="#777A7D"/>
</svg>
