<svg width="18" height="20" viewBox="0 0 18 20" fill="none" xmlns="http://www.w3.org/2000/svg">
<path d="M8.03469 19.9993C7.72909 19.9749 7.42851 19.9455 7.12292 19.926C5.70516 19.8185 4.30744 19.5937 2.95982 19.1393C2.16828 18.8754 1.41181 18.5432 0.775573 17.9959C0.45495 17.7174 0.209472 17.3949 0.084229 16.9893C-0.146219 16.2466 0.114287 15.6358 0.64532 15.108C1.18136 14.5803 1.84766 14.2529 2.54902 13.989C3.47582 13.6372 4.43769 13.4076 5.4196 13.2512C5.46469 13.2463 5.50477 13.2316 5.56489 13.217C5.52982 13.1535 5.50477 13.1046 5.4697 13.0557C4.77836 12.0052 4.07699 10.9644 3.40569 9.90402C2.52898 8.53094 2.20836 7.03082 2.50393 5.43785C2.92475 3.14614 4.24231 1.47988 6.42155 0.561235C8.66592 -0.386725 10.8502 -0.12286 12.8541 1.26976C14.2418 2.23238 15.1034 3.56148 15.4491 5.18376C15.8048 6.85979 15.5192 8.44298 14.5874 9.89913C13.9111 10.9595 13.2098 12.0003 12.5234 13.0509C12.4934 13.0997 12.4683 13.1486 12.4282 13.2121C12.829 13.2903 13.2148 13.3587 13.5905 13.4467C14.6776 13.6959 15.7397 13.9988 16.6915 14.595C17.2125 14.9223 17.6684 15.3181 17.8838 15.9143C18.0993 16.5104 17.984 17.0528 17.6183 17.5561C17.2476 18.0643 16.7266 18.3917 16.1705 18.6653C15.0283 19.2321 13.8059 19.5351 12.5485 19.7159C11.7369 19.8332 10.9203 19.882 10.1037 19.9651C10.0386 19.97 9.97346 19.9846 9.90833 19.9993C9.28712 19.9993 8.66091 19.9993 8.03469 19.9993ZM8.98654 16.271C9.04666 16.1879 9.08673 16.1293 9.12681 16.0706C10.5646 13.8767 11.9924 11.6729 13.4402 9.48379C14.5824 7.74912 14.7327 5.93627 13.7909 4.09898C12.9242 2.40829 11.4764 1.42613 9.54763 1.23556C7.50866 1.03522 5.86046 1.79261 4.63307 3.39046C3.34056 5.07626 3.25539 7.51457 4.41765 9.27856C5.43964 10.8324 6.45662 12.3863 7.4736 13.9402C7.96956 14.7073 8.47054 15.4745 8.98654 16.271ZM8.98654 18.8559C9.738 18.807 10.4895 18.7777 11.2409 18.7093C12.5435 18.5969 13.8259 18.3526 15.0483 17.8835C15.6044 17.6685 16.1505 17.4193 16.5613 16.9697C16.8719 16.6326 16.8669 16.3394 16.5613 16.0022C16.2757 15.6846 15.91 15.4696 15.5243 15.2888C14.347 14.7367 13.0845 14.4875 11.797 14.3213C11.7469 14.3164 11.6667 14.3702 11.6317 14.419C11.4814 14.634 11.3411 14.8539 11.2008 15.0738C10.6498 15.9192 10.0987 16.7596 9.54763 17.605C9.39233 17.8493 9.18192 17.9812 8.88133 17.9324C8.66591 17.8982 8.53566 17.7564 8.42545 17.5854C7.74913 16.5446 7.06781 15.5038 6.38648 14.463C6.31635 14.3555 6.25623 14.292 6.10594 14.3262C5.82539 14.3848 5.53984 14.4093 5.25929 14.4581C4.20224 14.6487 3.16021 14.8979 2.21838 15.4208C1.9228 15.5869 1.64727 15.8019 1.4068 16.0364C1.11624 16.3247 1.13126 16.6326 1.4068 16.9404C1.53204 17.0821 1.67733 17.2092 1.83764 17.3167C2.46887 17.7467 3.18025 17.9959 3.91167 18.2011C5.56489 18.6653 7.2682 18.8168 8.98654 18.8559Z" fill="#777A7D"/>
<path d="M11.9925 6.49336C11.9975 8.10099 10.6449 9.4252 8.99168 9.4252C7.33847 9.4252 5.99084 8.10587 5.99084 6.49336C5.99585 4.89063 7.33846 3.58108 8.98166 3.5713C10.6349 3.56642 11.9875 4.88574 11.9925 6.49336ZM10.7902 6.49336C10.7852 5.53563 9.97359 4.74404 8.99168 4.74404C8.01478 4.74404 7.19819 5.53563 7.19318 6.49336C7.18817 7.4511 8.01478 8.26224 9.0017 8.25247C9.98361 8.24269 10.7952 7.44621 10.7902 6.49336Z" fill="#777A7D"/>
</svg>
