<svg width="21" height="18" viewBox="0 0 21 18" fill="none" xmlns="http://www.w3.org/2000/svg">
<path d="M4.5 12V16.5H19.5V6H16.5V4.5H20.0385C20.373 4.5 20.4945 4.5345 20.616 4.6005C20.7374 4.66417 20.8367 4.76298 20.901 4.884C20.9655 5.0055 21 5.127 21 5.4615V17.0385C21 17.373 20.9655 17.4945 20.8995 17.616C20.8358 17.7374 20.737 17.8367 20.616 17.901C20.4945 17.9655 20.373 18 20.0385 18H3.9615C3.627 18 3.5055 17.9655 3.384 17.8995C3.26264 17.8358 3.16331 17.737 3.099 17.616C3.036 17.4945 3 17.373 3 17.04V12H4.5Z" fill="#777A7D"/>
<path d="M16.5 1.5H1.5V12H16.5V1.5ZM18 0.9615V12.5385C18 12.873 17.9655 12.9945 17.8995 13.116C17.8358 13.2374 17.737 13.3367 17.616 13.401C17.4945 13.4655 17.373 13.5 17.0385 13.5H0.9615C0.627 13.5 0.5055 13.4655 0.384 13.3995C0.262637 13.3358 0.163309 13.237 0.099 13.116C0.036 12.9945 0 12.873 0 12.54V0.9615C0 0.627 0.0345 0.5055 0.1005 0.384C0.164169 0.262637 0.262975 0.163309 0.384 0.099C0.5055 0.036 0.627 0 0.96 0H17.037C17.3715 0 17.493 0.0344999 17.6145 0.1005C17.7359 0.164169 17.8352 0.262975 17.8995 0.384C17.964 0.5055 17.9985 0.627 17.9985 0.9615H18Z" fill="#777A7D"/>
<path d="M9 10.5C8.00544 10.5 7.05161 10.1049 6.34835 9.40165C5.64509 8.69839 5.25 7.74456 5.25 6.75C5.25 5.75544 5.64509 4.80161 6.34835 4.09835C7.05161 3.39509 8.00544 3 9 3C9.99456 3 10.9484 3.39509 11.6516 4.09835C12.3549 4.80161 12.75 5.75544 12.75 6.75C12.75 7.74456 12.3549 8.69839 11.6516 9.40165C10.9484 10.1049 9.99456 10.5 9 10.5ZM9 9C9.59674 9 10.169 8.76295 10.591 8.34099C11.0129 7.91903 11.25 7.34674 11.25 6.75C11.25 6.15326 11.0129 5.58097 10.591 5.15901C10.169 4.73705 9.59674 4.5 9 4.5C8.40326 4.5 7.83097 4.73705 7.40901 5.15901C6.98705 5.58097 6.75 6.15326 6.75 6.75C6.75 7.34674 6.98705 7.91903 7.40901 8.34099C7.83097 8.76295 8.40326 9 9 9Z" fill="#777A7D"/>
</svg>
